<svg width="18" height="18" viewBox="0 0 18 18" fill="none" xmlns="http://www.w3.org/2000/svg">
<mask id="mask0" mask-type="alpha" maskUnits="userSpaceOnUse" x="1" y="1" width="16" height="16">
<path fill-rule="evenodd" clip-rule="evenodd" d="M10.9425 6L9 7.9425L7.0575 6L6 7.0575L7.9425 9L6 10.9425L7.0575 12L9 10.0575L10.9425 12L12 10.9425L10.0575 9L12 7.0575L10.9425 6V6ZM9 1.5C4.8525 1.5 1.5 4.8525 1.5 9C1.5 13.1475 4.8525 16.5 9 16.5C13.1475 16.5 16.5 13.1475 16.5 9C16.5 4.8525 13.1475 1.5 9 1.5V1.5ZM9 15C5.6925 15 3 12.3075 3 9.00001C3 5.69251 5.6925 3 9 3C12.3075 3 15 5.69251 15 9.00001C15 12.3075 12.3075 15 9 15V15Z" fill="white"/>
</mask>
<g mask="url(#mask0)">
<rect x="-9.75" y="-9.75" width="37.5" height="37.5" fill="#F2994A"/>
<mask id="mask1" mask-type="alpha" maskUnits="userSpaceOnUse" x="-10" y="-10" width="38" height="38">
<rect x="-9.75" y="-9.75" width="37.5" height="37.5" fill="white"/>
</mask>
<g mask="url(#mask1)">
</g>
</g>
</svg>
