<svg height='100px' width='100px'  fill="#006595" xmlns="http://www.w3.org/2000/svg" xmlns:xlink="http://www.w3.org/1999/xlink" xml:space="preserve" version="1.1" style="shape-rendering:geometricPrecision;text-rendering:geometricPrecision;image-rendering:optimizeQuality;" viewBox="0 0 1.539 2.266" x="0px" y="0px" fill-rule="evenodd" clip-rule="evenodd"><defs><style type="text/css">
   
    .fil0 {fill:#006595}
   
  </style></defs><g><path class="fil0" d="M1.053 1.858l0.486 0 0 -1.858 -1.539 0 0 1.858 0.486 0c-0.002,-0.011 -0.002,-0.022 -0.002,-0.034 0,-0.022 0.002,-0.044 0.007,-0.066l-0.201 0c-0.017,0 -0.03,-0.013 -0.03,-0.029 0,-0.036 -0.015,-0.069 -0.038,-0.092 -0.024,-0.024 -0.056,-0.038 -0.092,-0.038 -0.017,0 -0.03,-0.014 -0.03,-0.03l0 -1.279c0,-0.017 0.013,-0.03 0.03,-0.03 0.036,0 0.068,-0.015 0.092,-0.038 0.023,-0.024 0.038,-0.056 0.038,-0.092 0,-0.017 0.013,-0.03 0.03,-0.03l0.959 0c0.016,0 0.03,0.013 0.03,0.03 0,0.036 0.014,0.068 0.038,0.092l0.001 0.001c0.024,0.023 0.056,0.037 0.091,0.037 0.016,0 0.03,0.013 0.03,0.03l0 1.279c0,0.016 -0.014,0.03 -0.03,0.03 -0.036,0 -0.069,0.014 -0.092,0.038 -0.024,0.023 -0.038,0.056 -0.038,0.092 0,0.016 -0.014,0.029 -0.03,0.029l-0.202 0c0.005,0.022 0.008,0.044 0.008,0.066 0,0.012 -0.001,0.023 -0.002,0.034zm-0.446 0.202l0 0.206 0.153 -0.057c0.011,-0.004 0.008,-0.004 0.018,0l0.153 0.057 0 -0.206c-0.097,0.067 -0.227,0.067 -0.324,0zm0.388 -0.236c0,-0.062 -0.025,-0.118 -0.066,-0.159 -0.041,-0.041 -0.097,-0.066 -0.16,-0.066 -0.061,0 -0.117,0.024 -0.158,0.064l-0.001 0.002c-0.041,0.041 -0.066,0.097 -0.066,0.159 0,0.063 0.025,0.119 0.066,0.16 0.041,0.041 0.097,0.066 0.159,0.066 0.063,0 0.119,-0.025 0.16,-0.066 0.041,-0.041 0.066,-0.097 0.066,-0.16zm-0.731 -0.23l0 0zm0.762 0.105l0.195 0c0.007,-0.041 0.026,-0.077 0.054,-0.105 0.027,-0.027 0.063,-0.047 0.104,-0.053l0 -1.224c-0.04,-0.006 -0.075,-0.024 -0.103,-0.051l-0.001 -0.002c-0.028,-0.028 -0.047,-0.064 -0.054,-0.104l-0.904 0c-0.006,0.04 -0.025,0.076 -0.053,0.104 -0.028,0.028 -0.064,0.047 -0.104,0.053l0 1.224c0.04,0.006 0.076,0.026 0.104,0.053 0.028,0.028 0.047,0.064 0.053,0.105l0.196 0c0.014,-0.029 0.032,-0.055 0.054,-0.077l0.002 -0.001c0.052,-0.051 0.122,-0.082 0.2,-0.082 0.079,0 0.151,0.032 0.202,0.083 0.022,0.022 0.041,0.048 0.055,0.077zm-0.656 -0.66c-0.017,0 -0.03,-0.013 -0.03,-0.03 0,-0.016 0.013,-0.03 0.03,-0.03l0.479 0c0.017,0 0.03,0.014 0.03,0.03 0,0.017 -0.013,0.03 -0.03,0.03l-0.479 0zm0.319 0.32l-0.319 0c-0.017,0 -0.03,-0.014 -0.03,-0.03 0,-0.017 0.013,-0.03 0.03,-0.03l0.319 0c0.017,0 0.03,0.013 0.03,0.03 0,0.016 -0.013,0.03 -0.03,0.03zm-0.319 -0.48c-0.017,0 -0.03,-0.013 -0.03,-0.03 0,-0.016 0.013,-0.03 0.03,-0.03l0.799 0c0.017,0 0.03,0.014 0.03,0.03 0,0.017 -0.013,0.03 -0.03,0.03l-0.799 0zm0 -0.16c-0.017,0 -0.03,-0.013 -0.03,-0.03 0,-0.016 0.013,-0.03 0.03,-0.03l0.799 0c0.017,0 0.03,0.014 0.03,0.03 0,0.017 -0.013,0.03 -0.03,0.03l-0.799 0zm0.16 -0.319c-0.017,0 -0.03,-0.014 -0.03,-0.03 0,-0.017 0.013,-0.03 0.03,-0.03l0.479 0c0.017,0 0.03,0.013 0.03,0.03 0,0.016 -0.013,0.03 -0.03,0.03l-0.479 0z"></path></g></svg>