<svg width="24" height="24" viewBox="0 0 24 24" fill="none" xmlns="http://www.w3.org/2000/svg">
<g clip-path="url(#clip0)">
<path d="M13.03 1.86992L2.04 0.199919C1.53 0.119919 1.01 0.259919 0.62 0.589919C0.23 0.929918 0 1.41992 0 1.92992V22.9999C0 23.5499 0.45 23.9999 1 23.9999H4.25V18.7499C4.25 17.7799 5.03 16.9999 6 16.9999H8.5C9.47 16.9999 10.25 17.7799 10.25 18.7499V23.9999H14.5V3.59992C14.5 2.73992 13.88 2.00992 13.03 1.86992ZM5.5 14.7499H4C3.586 14.7499 3.25 14.4139 3.25 13.9999C3.25 13.5859 3.586 13.2499 4 13.2499H5.5C5.914 13.2499 6.25 13.5859 6.25 13.9999C6.25 14.4139 5.914 14.7499 5.5 14.7499ZM5.5 11.7499H4C3.586 11.7499 3.25 11.4139 3.25 10.9999C3.25 10.5859 3.586 10.2499 4 10.2499H5.5C5.914 10.2499 6.25 10.5859 6.25 10.9999C6.25 11.4139 5.914 11.7499 5.5 11.7499ZM5.5 8.74991H4C3.586 8.74991 3.25 8.41391 3.25 7.99991C3.25 7.58591 3.586 7.24991 4 7.24991H5.5C5.914 7.24991 6.25 7.58591 6.25 7.99991C6.25 8.41391 5.914 8.74991 5.5 8.74991ZM5.5 5.74991H4C3.586 5.74991 3.25 5.41391 3.25 4.99991C3.25 4.58591 3.586 4.24991 4 4.24991H5.5C5.914 4.24991 6.25 4.58591 6.25 4.99991C6.25 5.41391 5.914 5.74991 5.5 5.74991ZM10.5 14.7499H9C8.586 14.7499 8.25 14.4139 8.25 13.9999C8.25 13.5859 8.586 13.2499 9 13.2499H10.5C10.914 13.2499 11.25 13.5859 11.25 13.9999C11.25 14.4139 10.914 14.7499 10.5 14.7499ZM10.5 11.7499H9C8.586 11.7499 8.25 11.4139 8.25 10.9999C8.25 10.5859 8.586 10.2499 9 10.2499H10.5C10.914 10.2499 11.25 10.5859 11.25 10.9999C11.25 11.4139 10.914 11.7499 10.5 11.7499ZM10.5 8.74991H9C8.586 8.74991 8.25 8.41391 8.25 7.99991C8.25 7.58591 8.586 7.24991 9 7.24991H10.5C10.914 7.24991 11.25 7.58591 11.25 7.99991C11.25 8.41391 10.914 8.74991 10.5 8.74991ZM10.5 5.74991H9C8.586 5.74991 8.25 5.41391 8.25 4.99991C8.25 4.58591 8.586 4.24991 9 4.24991H10.5C10.914 4.24991 11.25 4.58591 11.25 4.99991C11.25 5.41391 10.914 5.74991 10.5 5.74991Z" fill="#54C5D0"/>
<path d="M22.62 10.842L15.5 9.35095V24H22.25C23.215 24 24 23.215 24 22.25V12.552C24 11.726 23.437 11.023 22.62 10.842ZM20.25 21H18.75C18.336 21 18 20.664 18 20.25C18 19.836 18.336 19.5 18.75 19.5H20.25C20.664 19.5 21 19.836 21 20.25C21 20.664 20.664 21 20.25 21ZM20.25 18H18.75C18.336 18 18 17.664 18 17.25C18 16.836 18.336 16.5 18.75 16.5H20.25C20.664 16.5 21 16.836 21 17.25C21 17.664 20.664 18 20.25 18ZM20.25 15H18.75C18.336 15 18 14.664 18 14.25C18 13.836 18.336 13.5 18.75 13.5H20.25C20.664 13.5 21 13.836 21 14.25C21 14.664 20.664 15 20.25 15Z" fill="#54C5D0"/>
</g>
<defs>
<clipPath id="clip0">
<rect width="24" height="24" fill="white"/>
</clipPath>
</defs>
</svg>
