<svg fill="none" height="24" viewBox="0 0 24 24" width="24" xmlns="http://www.w3.org/2000/svg" xmlns:xlink="http://www.w3.org/1999/xlink"><clipPath id="a"><path d="m0 0h24v24h-24z"/></clipPath><g clip-path="url(#a)" fill="#006595"><path d="m13.03 1.86998-10.99-1.67c-.51-.079999-1.03.06-1.42.39-.39.34-.62.83-.62 1.34v21.07002c0 .55.45 1 1 1h3.25v-5.25c0-.97.78-1.75 1.75-1.75h2.5c.97 0 1.75.78 1.75 1.75v5.25h4.25v-20.40002c0-.86-.62-1.59-1.47-1.73zm-7.53 12.88002h-1.5c-.414 0-.75-.336-.75-.75s.336-.75.75-.75h1.5c.414 0 .75.336.75.75s-.336.75-.75.75zm0-3h-1.5c-.414 0-.75-.336-.75-.75s.336-.75.75-.75h1.5c.414 0 .75.336.75.75s-.336.75-.75.75zm0-3.00003h-1.5c-.414 0-.75-.336-.75-.75s.336-.75.75-.75h1.5c.414 0 .75.336.75.75s-.336.75-.75.75zm0-3h-1.5c-.414 0-.75-.336-.75-.75 0-.41399.336-.74999.75-.74999h1.5c.414 0 .75.336.75.74999 0 .414-.336.75-.75.75zm5 9.00003h-1.5c-.414 0-.75-.336-.75-.75s.336-.75.75-.75h1.5c.414 0 .75.336.75.75s-.336.75-.75.75zm0-3h-1.5c-.414 0-.75-.336-.75-.75s.336-.75.75-.75h1.5c.414 0 .75.336.75.75s-.336.75-.75.75zm0-3.00003h-1.5c-.414 0-.75-.336-.75-.75s.336-.75.75-.75h1.5c.414 0 .75.336.75.75s-.336.75-.75.75zm0-3h-1.5c-.414 0-.75-.336-.75-.75 0-.41399.336-.74999.75-.74999h1.5c.414 0 .75.336.75.74999 0 .414-.336.75-.75.75z"/><path d="m22.62 10.8421-7.12-1.49103v14.64903h6.75c.965 0 1.75-.785 1.75-1.75v-9.698c0-.826-.563-1.529-1.38-1.71zm-2.37 10.158h-1.5c-.414 0-.75-.336-.75-.75s.336-.75.75-.75h1.5c.414 0 .75.336.75.75s-.336.75-.75.75zm0-3h-1.5c-.414 0-.75-.336-.75-.75s.336-.75.75-.75h1.5c.414 0 .75.336.75.75s-.336.75-.75.75zm0-3h-1.5c-.414 0-.75-.336-.75-.75s.336-.75.75-.75h1.5c.414 0 .75.336.75.75s-.336.75-.75.75z"/></g></svg>