<svg fill="none" height="24" viewBox="0 0 24 24" width="24" xmlns="http://www.w3.org/2000/svg"><g fill="#006595"><path d="m5.49997 3.99998h9.00003c.276 0 .5-.22401.5-.50001v-.99999c0-.82701-.673-1.499996-1.5-1.499996h-1.774c-.354-.609984-1.009-.999984-1.72603-.999984-.717 0-1.37199.39-1.72599.999984h-1.77398c-.82702 0-1.5.672986-1.5 1.499996v.99999c0 .27605.22397.50001.49997.50001z"/><path d="m20.935 20.854-1.501-.375-.063-.251c.39-.43.666-.979.781-1.549.267-.138.46-.4.5-.715l.108-.87c.033-.264-.048-.53-.223-.73-.054-.062-.115-.115-.182-.161l.025-.531.091-.091c.258-.274.606-.859.055-1.703-.2601-.4-.8001-.878-1.882-.878-.318 0-1.037 0-1.735.438-2.058.072-2.3 1.181-2.3 2.019 0 .165.029.474.058.732-.0741.047-.1431.105-.201.172-.178.202-.2601.469-.226.734l.108.87c.041.325.248.595.552.728.112.545.374 1.073.739 1.492l-.073.294-1.501.375c-1.215.304-2.065 1.392-2.065 2.646 0 .276.224.5.5.5h10c.276 0 .5-.225.5-.501 0-1.253-.85-2.341-2.065-2.645z"/><path d="m13.282 20.078c.091-.038.168-.102.223-.1839l.227-.34c.117-.175.111-.405-.014-.574-.2-.271-.322-.57-.362-.89l-.108-.874c-.058-.445.046-.899.289-1.28.0579-.089.0849-.195.078-.301-.004-.065-.006-.126-.006-.179 0-1.02.3789-2.765 2.916-2.996.062-.006.1209-.022.176-.049.806-.396 1.557-.405 1.804-.408.165-.002.321-.088.4119-.226.054-.082.0831-.178.0831-.277v-8.00005c0-.82702-.673-1.5-1.5-1.5h-1c-.276 0-.5.22401-.5.50001v.99999c0 .82701-.673 1.5-1.5 1.5h-9c-.82702 0-1.5-.67299-1.5-1.5v-1.00003c0-.276-.22402-.50002-.50002-.50002h-.99998c-.82702 0-1.5.67298-1.5 1.5v19c0 .827.67298 1.5 1.5 1.5h8c.276 0 .5-.224.5-.5 0-1.496.896-2.839 2.282-3.422z"/></g></svg>