<svg width="22" height="24" viewBox="0 0 22 24" fill="none" xmlns="http://www.w3.org/2000/svg">
<path d="M4.49997 3.99998H13.5C13.776 3.99998 14 3.77597 14 3.49997V2.49998C14 1.67297 13.327 0.999984 12.5 0.999984H10.726C10.372 0.39 9.71697 0 8.99997 0C8.28297 0 7.62798 0.39 7.27398 0.999984H5.5C4.67298 0.999984 4 1.67297 4 2.49998V3.49997C4 3.77602 4.22397 3.99998 4.49997 3.99998Z" fill="#54C5D0"/>
<path d="M19.935 20.854L18.434 20.479L18.371 20.228C18.761 19.798 19.037 19.249 19.152 18.679C19.419 18.541 19.612 18.279 19.652 17.964L19.76 17.094C19.793 16.83 19.712 16.564 19.537 16.364C19.483 16.302 19.422 16.249 19.355 16.203L19.38 15.672L19.471 15.581C19.729 15.307 20.077 14.722 19.526 13.878C19.2659 13.478 18.7259 13 17.644 13C17.326 13 16.607 13 15.909 13.438C13.851 13.51 13.609 14.619 13.609 15.457C13.609 15.622 13.638 15.931 13.667 16.189C13.5929 16.236 13.5239 16.294 13.466 16.361C13.288 16.563 13.2059 16.83 13.24 17.095L13.348 17.965C13.389 18.29 13.596 18.56 13.9 18.693C14.012 19.238 14.274 19.766 14.639 20.185L14.566 20.479L13.065 20.854C11.85 21.158 11 22.246 11 23.5C11 23.776 11.224 24 11.5 24H21.5C21.776 24 22 23.775 22 23.499C22 22.246 21.15 21.158 19.935 20.854Z" fill="#54C5D0"/>
<path d="M12.282 20.078C12.373 20.04 12.45 19.976 12.505 19.894L12.732 19.554C12.849 19.379 12.843 19.149 12.718 18.98C12.518 18.7091 12.396 18.41 12.356 18.09L12.248 17.216C12.19 16.7711 12.294 16.317 12.537 15.936C12.5949 15.847 12.6219 15.741 12.615 15.635C12.611 15.57 12.609 15.509 12.609 15.456C12.609 14.436 12.9879 12.691 15.525 12.46C15.587 12.454 15.6459 12.438 15.701 12.411C16.507 12.015 17.258 12.006 17.505 12.003C17.67 12.001 17.826 11.915 17.9169 11.777C17.9709 11.6951 18 11.5991 18 11.5001V3.5C18 2.67299 17.327 2 16.5 2H15.5C15.224 2 15 2.22402 15 2.50002V3.5C15 4.32702 14.327 5 13.5 5H4.5C3.67298 5 3 4.32702 3 3.5V2.49997C3 2.22397 2.77598 1.99995 2.49998 1.99995H1.5C0.672984 1.99995 0 2.67294 0 3.49995V22.5C0 23.327 0.672984 24 1.5 24H9.50002C9.77602 24 10 23.776 10 23.5C10 22.004 10.896 20.661 12.282 20.078Z" fill="#54C5D0"/>
</svg>
