<svg width="24" height="24" viewBox="0 0 24 24" fill="none" xmlns="http://www.w3.org/2000/svg">
<path d="M13.5174 14.6341C13.4252 14.4739 13.2261 14.4083 13.0562 14.4812C12.7333 14.622 12.3764 14.6972 12.0026 14.6972C11.6311 14.6972 11.2767 14.6196 10.9538 14.4812C10.7839 14.4083 10.5848 14.4715 10.4926 14.6341L7.91921 19.118C7.81482 19.2977 7.8828 19.5283 8.0673 19.623C8.69121 19.9435 10.1381 20.5674 11.9807 20.5771C11.9807 20.5771 11.9977 20.5771 12.0026 20.5771C12.0099 20.5771 12.0244 20.5771 12.0244 20.5771C13.8524 20.5674 15.3091 19.9435 15.9378 19.623C16.1223 19.5283 16.1927 19.2977 16.0883 19.118L13.5174 14.6341Z" fill="#54C5D0"/>
<path d="M9.35868 11.7449C9.44608 11.0021 9.83694 10.3418 10.4026 9.91206C10.5507 9.80039 10.5919 9.59646 10.4973 9.43866L7.88994 4.97662C7.78555 4.79697 7.55007 4.74113 7.3777 4.85523C6.78778 5.2388 5.52296 6.19045 4.6053 7.77329C4.59801 7.78543 4.59801 7.78542 4.59559 7.79028C4.59316 7.79514 4.58587 7.80727 4.58587 7.80727C3.68035 9.40711 3.49828 10.9802 3.46672 11.6819C3.45701 11.8906 3.62209 12.063 3.83087 12.063H9.00182C9.18146 12.0654 9.33684 11.927 9.35868 11.7449Z" fill="#54C5D0"/>
<path d="M19.4165 7.80729C19.4165 7.80729 19.4092 7.79515 19.4068 7.79029C19.4044 7.78544 19.4044 7.78544 19.3971 7.7733C18.4794 6.19045 17.2146 5.23881 16.6247 4.85523C16.4499 4.74113 16.2168 4.79697 16.1124 4.97662L13.5027 9.43868C13.4104 9.59891 13.4517 9.80041 13.5974 9.91208C14.163 10.3418 14.5539 11.0021 14.6412 11.745C14.6631 11.9271 14.8185 12.0654 15.003 12.0654H20.1739C20.3827 12.0654 20.5478 11.893 20.5381 11.6843C20.5041 10.9827 20.3244 9.40955 19.4165 7.80729Z" fill="#54C5D0"/>
<path d="M10.2207 12.0534C10.2256 12.704 10.58 13.2696 11.1044 13.5755C11.3666 13.7285 11.6749 13.8183 12.0002 13.8183C12.3279 13.8183 12.6362 13.7285 12.9009 13.5755C13.4228 13.2696 13.7748 12.704 13.7821 12.0534C13.7821 12.0485 13.7821 12.0436 13.7821 12.0388C13.7821 11.3785 13.4228 10.8031 12.8911 10.4972C12.629 10.3467 12.3255 10.2593 12.0026 10.2593C11.6797 10.2593 11.3763 10.3467 11.1141 10.4972C10.5824 10.8055 10.2231 11.3809 10.2231 12.0388C10.2207 12.0436 10.2207 12.0485 10.2207 12.0534Z" fill="#54C5D0"/>
<path d="M20.4847 3.51527C19.385 2.41311 18.1007 1.54886 16.6708 0.944366C15.19 0.318026 13.6193 0 12 0C10.3807 0 8.81003 0.318026 7.32915 0.944366C5.89925 1.54886 4.61744 2.41311 3.51527 3.51527C2.41311 4.61744 1.54886 5.89925 0.944366 7.32915C0.318026 8.80761 0 10.3807 0 12C0 13.6193 0.318026 15.19 0.944366 16.6708C1.54886 18.1007 2.41311 19.3825 3.51527 20.4847C4.61744 21.5869 5.89925 22.4511 7.32918 23.0556C8.81003 23.682 10.3807 24 12 24C13.6193 24 15.19 23.682 16.6708 23.0557C18.1007 22.4512 19.385 21.5869 20.4847 20.4848C21.5869 19.3826 22.4511 18.1008 23.0556 16.6709C23.682 15.19 24 13.6193 24 12C24 10.3808 23.6819 8.80763 23.058 7.32918C22.4536 5.89925 21.5869 4.61744 20.4847 3.51527ZM20.9338 15.7726C20.4459 16.9258 19.7467 17.9623 18.8558 18.8533C17.9648 19.7443 16.9282 20.4434 15.775 20.9314C14.5806 21.4364 13.3109 21.6937 12.0024 21.6937C10.6939 21.6937 9.42424 21.4364 8.22982 20.9314C7.07667 20.4435 6.04006 19.7443 5.1491 18.8533C4.25814 17.9624 3.55897 16.9258 3.07101 15.7726C2.56605 14.5782 2.30872 13.3085 2.30872 12C2.30872 10.6915 2.56605 9.42183 3.07101 8.22742C3.55897 7.07427 4.25814 6.03765 5.1491 5.1467C6.04006 4.25574 7.07667 3.55657 8.22982 3.06861C9.42424 2.56363 10.6939 2.30629 12.0024 2.30629C13.3109 2.30629 14.5806 2.56363 15.775 3.06858C16.9282 3.55654 17.9648 4.25572 18.8558 5.14667C19.7467 6.03763 20.4459 7.07425 20.9338 8.22739C21.4388 9.42181 21.6961 10.6915 21.6961 12C21.6961 13.3085 21.4388 14.5782 20.9338 15.7726Z" fill="#54C5D0"/>
</svg>
