<svg width="24" height="24" viewBox="0 0 24 24" fill="none" xmlns="http://www.w3.org/2000/svg">
<path d="M23.5295 10.7655L13.503 0.738661C12.6744 -0.0876183 11.3269 -0.0887905 10.4965 0.739784L0.470118 10.7655C-0.156747 11.3923 -0.156747 12.409 0.470118 13.0358C1.09737 13.663 2.1134 13.663 2.74055 13.0358L4.09968 11.6764V22.1708C4.09968 23.1156 4.86559 23.8814 5.81041 23.8814H9.46493V19.1136C9.46493 18.7432 9.7651 18.4425 10.1361 18.4425H13.8652C14.2359 18.4425 14.5362 18.7432 14.5362 19.1136V23.8815H18.1901C19.135 23.8815 19.9008 23.1156 19.9008 22.1709V11.6773L21.2592 13.0358C21.573 13.3494 21.9836 13.5061 22.3944 13.5061C22.805 13.5061 23.2158 13.3494 23.5295 13.0358C24.1568 12.409 24.1568 11.3923 23.5295 10.7655Z" fill="#54C5D0"/>
</svg>
