<svg width="18" height="18" viewBox="0 0 18 18" fill="none" xmlns="http://www.w3.org/2000/svg">
<mask id="mask0" mask-type="alpha" maskUnits="userSpaceOnUse" x="3" y="1" width="12" height="16">
<path fill-rule="evenodd" clip-rule="evenodd" d="M10.5 1.5H4.5C3.675 1.5 3.0075 2.175 3.0075 3L3 15C3 15.825 3.6675 16.5 4.4925 16.5H13.5C14.325 16.5 15 15.825 15 15V6L10.5 1.5ZM12 13.5H6V12H12V13.5ZM12 10.5H6V9H12V10.5ZM9.75 6.75V2.625L13.875 6.75H9.75Z" fill="white"/>
</mask>
<g mask="url(#mask0)">
<rect x="-9.75" y="-9.75" width="37.5" height="37.5" fill="#54C5D0"/>
<mask id="mask1" mask-type="alpha" maskUnits="userSpaceOnUse" x="-10" y="-10" width="38" height="38">
<rect x="-9.75" y="-9.75" width="37.5" height="37.5" fill="white"/>
</mask>
<g mask="url(#mask1)">
</g>
</g>
</svg>
