<svg width="24" height="24" viewBox="0 0 24 24" fill="none" xmlns="http://www.w3.org/2000/svg">
<mask id="mask0" mask-type="alpha" maskUnits="userSpaceOnUse" x="3" y="1" width="18" height="20">
<path fill-rule="evenodd" clip-rule="evenodd" d="M17 12H12V17H17V12ZM16 1V3H8V1H6V3H5C3.89 3 3.01 3.9 3.01 5L3 19C3 20.1 3.89 21 5 21H19C20.1 21 21 20.1 21 19V5C21 3.9 20.1 3 19 3H18V1H16ZM19 19H5V8H19V19Z" fill="white"/>
</mask>
<g mask="url(#mask0)">
<rect x="-13" y="-13" width="50" height="50" fill="#006595"/>
<mask id="mask1" mask-type="alpha" maskUnits="userSpaceOnUse" x="-13" y="-13" width="50" height="50">
<rect x="-13" y="-13" width="50" height="50" fill="white"/>
</mask>
<g mask="url(#mask1)">
</g>
</g>
</svg>
