<svg width="18" height="18" viewBox="0 0 18 18" fill="none" xmlns="http://www.w3.org/2000/svg">
<mask id="mask0" mask-type="alpha" maskUnits="userSpaceOnUse" x="1" y="1" width="16" height="16">
<path fill-rule="evenodd" clip-rule="evenodd" d="M9 1.5C4.86 1.5 1.5 4.86 1.5 9C1.5 13.14 4.86 16.5 9 16.5C13.14 16.5 16.5 13.14 16.5 9C16.5 4.86 13.14 1.5 9 1.5V1.5ZM7.5 12.75L3.75 8.99998L4.8075 7.94248L7.5 10.6275L13.1925 4.93498L14.25 5.99998L7.5 12.75V12.75Z" fill="white"/>
</mask>
<g mask="url(#mask0)">
<rect x="-9.75" y="-9.75" width="37.5" height="37.5" fill="#2ECC71"/>
<mask id="mask1" mask-type="alpha" maskUnits="userSpaceOnUse" x="-10" y="-10" width="38" height="38">
<rect x="-9.75" y="-9.75" width="37.5" height="37.5" fill="white"/>
</mask>
<g mask="url(#mask1)">
</g>
</g>
</svg>
