<svg width="24" height="24" viewBox="0 0 24 24" fill="none" xmlns="http://www.w3.org/2000/svg">
<path d="M12.7346 8.9448L13.9422 10.1531C13.9785 10.1894 14.0278 10.2099 14.0792 10.2099C14.1306 10.2099 14.1799 10.1894 14.2163 10.1531L15.5509 8.8174C15.8184 8.55242 16.1732 8.40664 16.5487 8.40664C16.9245 8.40664 17.2794 8.55242 17.5504 8.82167L18.8821 10.1532C18.9184 10.1895 18.9677 10.2099 19.0191 10.2099C19.0705 10.2099 19.1198 10.1895 19.1562 10.1531L20.5119 8.79664C20.7793 8.53166 21.1338 8.38588 21.5096 8.38588C21.891 8.38588 22.1961 8.55664 22.3742 8.68791C22.4183 8.72035 22.4745 8.73117 22.5274 8.71732C22.5803 8.70351 22.6241 8.66646 22.6466 8.61669L23.1971 7.39987C23.3311 7.10404 23.3422 6.76734 23.2275 6.46367C23.1137 6.1597 22.883 5.9138 22.5875 5.78004L15.625 2.62899C15.0093 2.35031 14.2843 2.62348 14.0052 3.23927L11.6608 8.41782C11.6497 8.44235 11.6518 8.47081 11.6664 8.49341C11.681 8.51601 11.706 8.52972 11.733 8.52972C12.1088 8.52972 12.4635 8.67589 12.7346 8.9448Z" fill="#006595"/>
<path d="M2.25582 8.38727C2.27946 8.46833 2.35292 8.5249 2.4373 8.52684C2.62435 8.53111 2.97665 8.59255 3.34951 8.9452C3.58975 9.17238 4.26415 9.85522 4.5555 10.151C4.59171 10.1878 4.64123 10.2086 4.69283 10.2088C4.74444 10.209 4.79406 10.1885 4.83056 10.152L6.04202 8.94048C6.30919 8.6755 6.66401 8.52972 7.03956 8.52972C7.41534 8.52972 7.77017 8.6755 8.04126 8.94475L9.24939 10.1537C9.32489 10.2292 9.44702 10.2294 9.52286 10.1543C9.82028 9.85949 10.5171 9.169 10.7511 8.93968C10.7988 8.89294 10.8169 8.82366 10.7981 8.75959L9.58475 4.59794C9.46709 4.19687 9.04764 3.96651 8.64563 4.08313C8.00004 4.27172 7.32495 3.90075 7.13546 3.25526L6.80577 2.12427L2.82645 3.28481L3.1561 4.41556C3.34405 5.06129 2.97367 5.73718 2.32848 5.92512C1.92622 6.04244 1.69551 6.46368 1.81238 6.86519L2.25582 8.38727Z" fill="#006595"/>
<path d="M2.62696 2.45584L6.52973 1.31863L6.41281 0.916719C6.22358 0.267805 5.54377 -0.104707 4.89525 0.0847278L3.34178 0.537503C3.02982 0.628395 2.76732 0.839237 2.61141 1.12413C2.45521 1.40863 2.41885 1.74379 2.51004 2.05561L2.62696 2.45584Z" fill="#006595"/>
<path d="M23.8053 11.7888L21.6645 9.64759C21.6234 9.60656 21.5679 9.58322 21.5095 9.58322C21.451 9.58322 21.3957 9.60656 21.3543 9.64759L19.174 11.8287C19.1329 11.8695 19.0773 11.8929 19.0191 11.8929C18.9605 11.8929 18.9052 11.8699 18.8641 11.8287L16.704 9.6682C16.6626 9.62733 16.6073 9.60398 16.5487 9.60398C16.4904 9.60398 16.4349 9.62733 16.3937 9.6682L14.2345 11.8287C14.1931 11.8695 14.1378 11.8929 14.0793 11.8929C14.0209 11.8929 13.9657 11.8695 13.9242 11.8287L11.8883 9.79143C11.8467 9.7504 11.7916 9.72706 11.733 9.72706C11.6746 9.72706 11.6194 9.7504 11.5779 9.79143L9.54115 11.8287C9.49973 11.8695 9.4445 11.8929 9.38584 11.8929C9.32758 11.8929 9.27235 11.8695 9.23083 11.8287L7.19488 9.79143C7.15341 9.7504 7.09823 9.72706 7.03962 9.72706C6.98131 9.72706 6.92603 9.7504 6.8846 9.79143L4.84781 11.8287C4.80639 11.8695 4.75106 11.8929 4.6925 11.8929C4.63419 11.8929 4.57891 11.8695 4.53748 11.8287L2.50233 9.79143C2.46091 9.7504 2.40563 9.72706 2.34707 9.72706C2.28871 9.72706 2.23323 9.7504 2.192 9.79143L0.194997 11.7888C0.0701314 11.9136 0 12.0831 0 12.2597V23.9646H0.000745022H24V12.2597C24 12.0831 23.9299 11.9136 23.8053 11.7888Z" fill="#006595"/>
</svg>
