<svg width="24" height="24" viewBox="0 0 24 24" fill="none" xmlns="http://www.w3.org/2000/svg">
<path d="M12.7347 8.94477L13.9422 10.153C13.9786 10.1894 14.0279 10.2099 14.0793 10.2099C14.1307 10.2099 14.18 10.1894 14.2164 10.153L15.551 8.81737C15.8185 8.55239 16.1733 8.40661 16.5488 8.40661C16.9246 8.40661 17.2795 8.55239 17.5505 8.82164L18.8822 10.1531C18.9184 10.1895 18.9678 10.2099 19.0192 10.2099C19.0706 10.2099 19.1199 10.1895 19.1563 10.1531L20.512 8.79661C20.7794 8.53163 21.1339 8.38585 21.5097 8.38585C21.8911 8.38585 22.1961 8.55661 22.3743 8.68788C22.4184 8.72032 22.4746 8.73114 22.5275 8.71729C22.5804 8.70348 22.6242 8.66643 22.6467 8.61666L23.1972 7.39984C23.3312 7.10401 23.3422 6.76731 23.2276 6.46364C23.1138 6.15967 22.8831 5.91377 22.5876 5.78001L15.6251 2.62896C15.0094 2.35028 14.2844 2.62345 14.0053 3.23924L11.6609 8.41779C11.6498 8.44232 11.6518 8.47078 11.6665 8.49338C11.6811 8.51598 11.7061 8.52969 11.7331 8.52969C12.1088 8.52969 12.4636 8.67586 12.7347 8.94477Z" fill="#54C5D0"/>
<path d="M2.25603 8.38727C2.27967 8.46833 2.35313 8.5249 2.43752 8.52684C2.62457 8.53111 2.97686 8.59255 3.34972 8.9452C3.58997 9.17238 4.26436 9.85522 4.55572 10.151C4.59192 10.1878 4.64144 10.2086 4.69305 10.2088C4.74465 10.209 4.79427 10.1885 4.83078 10.152L6.04223 8.94048C6.3094 8.6755 6.66423 8.52972 7.03977 8.52972C7.41556 8.52972 7.77039 8.6755 8.04148 8.94475L9.24961 10.1537C9.3251 10.2292 9.44723 10.2294 9.52308 10.1543C9.82049 9.85949 10.5173 9.169 10.7513 8.93968C10.7991 8.89294 10.8171 8.82366 10.7984 8.75959L9.58496 4.59794C9.4673 4.19687 9.04785 3.96651 8.64584 4.08313C8.00025 4.27172 7.32516 3.90075 7.13568 3.25526L6.80598 2.12427L2.82667 3.28481L3.15632 4.41556C3.34426 5.06129 2.97388 5.73718 2.3287 5.92512C1.92643 6.04244 1.69572 6.46368 1.81259 6.86519L2.25603 8.38727Z" fill="#54C5D0"/>
<path d="M2.62711 2.45587L6.52989 1.31866L6.41297 0.91675C6.22373 0.267835 5.54392 -0.104676 4.89541 0.0847583L3.34194 0.537533C3.02997 0.628426 2.76747 0.839267 2.61157 1.12416C2.45536 1.40866 2.419 1.74382 2.51019 2.05564L2.62711 2.45587Z" fill="#54C5D0"/>
<path d="M23.8053 11.7889L21.6645 9.64762C21.6234 9.6066 21.5679 9.58325 21.5095 9.58325C21.451 9.58325 21.3957 9.6066 21.3543 9.64762L19.174 11.8287C19.1329 11.8696 19.0773 11.8929 19.0191 11.8929C18.9605 11.8929 18.9052 11.87 18.8641 11.8287L16.704 9.66823C16.6626 9.62736 16.6073 9.60401 16.5487 9.60401C16.4904 9.60401 16.4349 9.62736 16.3937 9.66823L14.2345 11.8287C14.1931 11.8696 14.1378 11.8929 14.0793 11.8929C14.0209 11.8929 13.9657 11.8696 13.9242 11.8287L11.8883 9.79146C11.8467 9.75043 11.7916 9.72709 11.733 9.72709C11.6746 9.72709 11.6194 9.75043 11.5779 9.79146L9.54115 11.8287C9.49973 11.8696 9.4445 11.8929 9.38584 11.8929C9.32758 11.8929 9.27235 11.8696 9.23083 11.8287L7.19488 9.79146C7.15341 9.75043 7.09823 9.72709 7.03962 9.72709C6.98131 9.72709 6.92603 9.75043 6.8846 9.79146L4.84781 11.8287C4.80639 11.8696 4.75106 11.8929 4.6925 11.8929C4.63419 11.8929 4.57891 11.8696 4.53748 11.8287L2.50233 9.79146C2.46091 9.75043 2.40563 9.72709 2.34707 9.72709C2.28871 9.72709 2.23323 9.75043 2.192 9.79146L0.194997 11.7889C0.0701314 11.9136 0 12.0831 0 12.2597V23.9647H0.000745022H24V12.2597C24 12.0831 23.9299 11.9136 23.8053 11.7889Z" fill="#54C5D0"/>
</svg>
