<svg height='100px' width='100px'  fill="#006595" xmlns="http://www.w3.org/2000/svg" xmlns:xlink="http://www.w3.org/1999/xlink" version="1.1" x="0px" y="0px" viewBox="0 0 100 100" style="enable-background:new 0 0 100 100;" xml:space="preserve"><path d="M76.8,50l12.9-21.6H64L50,5L36,28.4H10.3L23.2,50L10.3,71.6H36L50,95l14-23.4h25.7L76.8,50z M78.8,34.6L73.3,44l-5.6-9.4  H78.8z M69.7,50l-9.2,15.4h-21L30.3,50l9.2-15.4h21L69.7,50z M50,17l6.8,11.4H43.2L50,17z M21.2,34.6h11.2L26.8,44L21.2,34.6z   M21.2,65.4l5.6-9.4l5.6,9.4H21.2z M50,83l-6.8-11.4h13.6L50,83z M73.3,56l5.6,9.4H67.7L73.3,56z"></path></svg>