<svg width="24" height="24" viewBox="0 0 24 24" fill="none" xmlns="http://www.w3.org/2000/svg">
<path d="M22.9398 0.493864C22.9398 0.221074 22.7186 0 22.4459 0C21.9006 0 21.607 0.233193 21.3926 0.403499C21.2291 0.533361 21.1546 0.592657 20.9537 0.592657C20.7528 0.592657 20.6782 0.533361 20.5147 0.403499C20.3003 0.233193 20.0068 0 19.4615 0C18.9162 0 18.6226 0.233193 18.4082 0.403499C18.2447 0.533361 18.1701 0.592657 17.9694 0.592657C17.7686 0.592657 17.694 0.533361 17.5306 0.403499C17.3161 0.233193 17.0225 0 16.4772 0C15.9319 0 15.6384 0.233193 15.4241 0.403499C15.2606 0.533361 15.186 0.592657 14.9852 0.592657C14.7845 0.592657 14.7099 0.533361 14.5464 0.403499C14.3319 0.233193 14.0384 0 13.4932 0C12.9478 0 12.6543 0.233193 12.44 0.403499C12.2765 0.533361 12.2019 0.592657 12.0011 0.592657C11.8003 0.592657 11.7258 0.533361 11.5623 0.403499C11.3479 0.233193 11.0544 0 10.5091 0C9.96371 0 9.67022 0.233193 9.45588 0.403499C9.2924 0.533361 9.21775 0.592657 9.01692 0.592657C8.81624 0.592657 8.74169 0.533361 8.57821 0.403499C8.36372 0.233193 8.07019 0 7.52476 0C6.97963 0 6.68604 0.233193 6.4717 0.403499C6.30822 0.533361 6.23357 0.592657 6.03289 0.592657C5.83221 0.592657 5.75756 0.533361 5.59418 0.403549C5.37979 0.233193 5.08616 0 4.54103 0C3.9957 0 3.70211 0.233243 3.48782 0.403549C3.3243 0.533411 3.24969 0.592657 3.04901 0.592657C2.84833 0.592657 2.77378 0.533361 2.61025 0.403499C2.39591 0.233193 2.09943 0 1.55415 0C1.28137 0 1.06034 0.221124 1.06034 0.493864L1.05765 22.9886C1.09395 23.2256 1.29807 23.4074 1.54518 23.4074C1.74586 23.4074 1.82046 23.4666 1.98389 23.5965C2.19838 23.7668 2.50383 24 3.04906 24C3.59429 24 3.88793 23.7668 4.10222 23.5965C4.26569 23.4666 4.34035 23.4074 4.54108 23.4074C4.74165 23.4074 4.81636 23.4666 4.97983 23.5965C5.19413 23.7668 5.48776 24 6.03299 24C6.57822 24 6.87181 23.7668 7.0862 23.5965C7.24967 23.4666 7.32423 23.4074 7.52486 23.4074C7.72578 23.4074 7.80034 23.4666 7.96376 23.5965C8.17815 23.7668 8.47179 24 9.01692 24C9.5623 24 9.85594 23.7668 10.0703 23.5965C10.2338 23.4666 10.3084 23.4074 10.5091 23.4074C10.7098 23.4074 10.7844 23.4666 10.9479 23.5965C11.1622 23.7668 11.4557 24 12.0011 24C12.5464 24 12.84 23.7668 13.0544 23.5965C13.2178 23.4666 13.2924 23.4074 13.4933 23.4074C13.6939 23.4074 13.7686 23.4666 13.9321 23.5965C14.1464 23.7668 14.4399 24 14.9853 24C15.5306 24 15.8241 23.7668 16.0383 23.5965C16.2019 23.4666 16.2765 23.4074 16.4772 23.4074C16.6779 23.4074 16.7526 23.4666 16.9162 23.5965C17.1304 23.7668 17.4241 24 17.9694 24C18.5147 24 18.8082 23.7668 19.0226 23.5965C19.186 23.4666 19.2606 23.4074 19.4615 23.4074C19.6622 23.4074 19.7368 23.4666 19.9005 23.5965C20.1148 23.7668 20.4084 24 20.9537 24C21.4989 24 21.8016 23.7668 22.0159 23.5965C22.1794 23.4666 22.254 23.4074 22.4549 23.4074C22.7021 23.4074 22.9062 23.2256 22.9425 22.9886L22.9398 0.493864ZM13.6457 15.826H3.69707C3.28395 15.826 2.94902 15.4911 2.94902 15.0779C2.94902 14.6649 3.28395 14.3299 3.69707 14.3299H13.6456C14.0587 14.3299 14.3937 14.6649 14.3937 15.0779C14.3937 15.4911 14.0588 15.826 13.6457 15.826ZM13.6457 11.3377H3.69707C3.28395 11.3377 2.94902 11.0027 2.94902 10.5896C2.94902 10.1765 3.28395 9.84157 3.69707 9.84157H13.6456C14.0587 9.84157 14.3937 10.1765 14.3937 10.5896C14.3937 11.0027 14.0588 11.3377 13.6457 11.3377ZM13.6457 6.84936H3.69707C3.28395 6.84936 2.94902 6.51444 2.94902 6.10131C2.94902 5.68819 3.28395 5.35326 3.69707 5.35326H13.6456C14.0587 5.35326 14.3937 5.68819 14.3937 6.10131C14.3937 6.51444 14.0588 6.84936 13.6457 6.84936ZM20.3031 15.826H16.937C16.5239 15.826 16.189 15.4911 16.189 15.0779C16.189 14.6649 16.5239 14.3299 16.937 14.3299H20.3031C20.7162 14.3299 21.0511 14.6649 21.0511 15.0779C21.0511 15.4911 20.7162 15.826 20.3031 15.826ZM20.3031 11.3377H16.937C16.5239 11.3377 16.189 11.0027 16.189 10.5896C16.189 10.1765 16.5239 9.84157 16.937 9.84157H20.3031C20.7162 9.84157 21.0511 10.1765 21.0511 10.5896C21.0511 11.0027 20.7162 11.3377 20.3031 11.3377ZM20.3031 6.84936H16.937C16.5239 6.84936 16.189 6.51444 16.189 6.10131C16.189 5.68819 16.5239 5.35326 16.937 5.35326H20.3031C20.7162 5.35326 21.0511 5.68819 21.0511 6.10131C21.0511 6.51444 20.7162 6.84936 20.3031 6.84936Z" fill="#006595"/>
</svg>
