<svg width="22" height="24" viewBox="0 0 22 24" fill="none" xmlns="http://www.w3.org/2000/svg">
<path d="M21.9397 0.493864C21.9397 0.221074 21.7186 0 21.4459 0C20.9005 0 20.607 0.233193 20.3926 0.403499C20.2291 0.533361 20.1545 0.592657 19.9537 0.592657C19.7528 0.592657 19.6782 0.533361 19.5146 0.403499C19.3003 0.233193 19.0067 0 18.4614 0C17.9162 0 17.6225 0.233193 17.4081 0.403499C17.2447 0.533361 17.1701 0.592657 16.9693 0.592657C16.7685 0.592657 16.6939 0.533361 16.5305 0.403499C16.316 0.233193 16.0224 0 15.4772 0C14.9319 0 14.6383 0.233193 14.4241 0.403499C14.2606 0.533361 14.1859 0.592657 13.9852 0.592657C13.7845 0.592657 13.7099 0.533361 13.5463 0.403499C13.3319 0.233193 13.0384 0 12.4932 0C11.9478 0 11.6543 0.233193 11.44 0.403499C11.2765 0.533361 11.2018 0.592657 11.0011 0.592657C10.8003 0.592657 10.7258 0.533361 10.5623 0.403499C10.3478 0.233193 10.0543 0 9.50905 0C8.96367 0 8.67019 0.233193 8.45585 0.403499C8.29237 0.533361 8.21772 0.592657 8.01689 0.592657C7.81621 0.592657 7.74166 0.533361 7.57818 0.403499C7.36369 0.233193 7.07016 0 6.52473 0C5.9796 0 5.68601 0.233193 5.47167 0.403499C5.30819 0.533361 5.23354 0.592657 5.03286 0.592657C4.83218 0.592657 4.75753 0.533361 4.59415 0.403549C4.37976 0.233193 4.08613 0 3.541 0C2.99567 0 2.70208 0.233243 2.48779 0.403549C2.32426 0.533411 2.24966 0.592657 2.04898 0.592657C1.8483 0.592657 1.77375 0.533361 1.61022 0.403499C1.39588 0.233193 1.0994 0 0.554124 0C0.281335 0 0.0603101 0.221124 0.0603101 0.493864L0.0576172 22.9886C0.0939226 23.2256 0.298041 23.4074 0.545148 23.4074C0.745825 23.4074 0.820431 23.4666 0.983855 23.5965C1.19835 23.7668 1.5038 24 2.04903 24C2.59426 24 2.8879 23.7668 3.10219 23.5965C3.26566 23.4666 3.34032 23.4074 3.54105 23.4074C3.74162 23.4074 3.81633 23.4666 3.9798 23.5965C4.1941 23.7668 4.48773 24 5.03296 24C5.57819 24 5.87178 23.7668 6.08617 23.5965C6.24964 23.4666 6.3242 23.4074 6.52483 23.4074C6.72575 23.4074 6.80031 23.4666 6.96373 23.5965C7.17812 23.7668 7.47176 24 8.01689 24C8.56227 24 8.8559 23.7668 9.07025 23.5965C9.23372 23.4666 9.30833 23.4074 9.50905 23.4074C9.70978 23.4074 9.78439 23.4666 9.94786 23.5965C10.1622 23.7668 10.4557 24 11.0011 24C11.5464 24 11.8399 23.7668 12.0543 23.5965C12.2178 23.4666 12.2924 23.4074 12.4932 23.4074C12.6939 23.4074 12.7686 23.4666 12.932 23.5965C13.1464 23.7668 13.4399 24 13.9852 24C14.5305 24 14.8241 23.7668 15.0383 23.5965C15.2018 23.4666 15.2764 23.4074 15.4772 23.4074C15.6779 23.4074 15.7525 23.4666 15.9162 23.5965C16.1304 23.7668 16.4241 24 16.9693 24C17.5147 24 17.8081 23.7668 18.0225 23.5965C18.186 23.4666 18.2606 23.4074 18.4614 23.4074C18.6622 23.4074 18.7368 23.4666 18.9004 23.5965C19.1147 23.7668 19.4084 24 19.9537 24C20.4989 24 20.8015 23.7668 21.0159 23.5965C21.1794 23.4666 21.254 23.4074 21.4548 23.4074C21.7021 23.4074 21.9062 23.2256 21.9424 22.9886L21.9397 0.493864ZM12.6456 15.826H2.69704C2.28392 15.826 1.94899 15.4911 1.94899 15.0779C1.94899 14.6649 2.28392 14.3299 2.69704 14.3299H12.6456C13.0587 14.3299 13.3936 14.6649 13.3936 15.0779C13.3937 15.4911 13.0588 15.826 12.6456 15.826ZM12.6456 11.3377H2.69704C2.28392 11.3377 1.94899 11.0027 1.94899 10.5896C1.94899 10.1765 2.28392 9.84157 2.69704 9.84157H12.6456C13.0587 9.84157 13.3936 10.1765 13.3936 10.5896C13.3937 11.0027 13.0588 11.3377 12.6456 11.3377ZM12.6456 6.84936H2.69704C2.28392 6.84936 1.94899 6.51444 1.94899 6.10131C1.94899 5.68819 2.28392 5.35326 2.69704 5.35326H12.6456C13.0587 5.35326 13.3936 5.68819 13.3936 6.10131C13.3937 6.51444 13.0588 6.84936 12.6456 6.84936ZM19.303 15.826H15.937C15.5239 15.826 15.189 15.4911 15.189 15.0779C15.189 14.6649 15.5239 14.3299 15.937 14.3299H19.303C19.7162 14.3299 20.0511 14.6649 20.0511 15.0779C20.0511 15.4911 19.7162 15.826 19.303 15.826ZM19.303 11.3377H15.937C15.5239 11.3377 15.189 11.0027 15.189 10.5896C15.189 10.1765 15.5239 9.84157 15.937 9.84157H19.303C19.7162 9.84157 20.0511 10.1765 20.0511 10.5896C20.0511 11.0027 19.7162 11.3377 19.303 11.3377ZM19.303 6.84936H15.937C15.5239 6.84936 15.189 6.51444 15.189 6.10131C15.189 5.68819 15.5239 5.35326 15.937 5.35326H19.303C19.7162 5.35326 20.0511 5.68819 20.0511 6.10131C20.0511 6.51444 19.7162 6.84936 19.303 6.84936Z" fill="#54C5D0"/>
</svg>
