<svg width="24" height="24" viewBox="0 0 24 24" fill="none" xmlns="http://www.w3.org/2000/svg">
<path d="M16.2449 22.5973L16.2281 22.2784C16.0926 22.2926 15.9577 22.307 15.8236 22.307C14.935 22.307 14.0711 21.9832 13.3976 21.3866L9.41821 17.8579C7.90772 16.5187 7.7689 14.2085 9.10884 12.698C10.4488 11.1876 12.7598 11.0495 14.2687 12.387L15.02 13.0535L15.6729 12.0125L15.4262 7.45083C15.3873 6.74481 14.805 6.19264 14.0973 6.19264H12.8408V4.18715C12.8408 1.87829 10.9622 0 8.65355 0C6.34581 0 4.46791 1.87785 4.46791 4.18647V6.19278H3.20485C2.49867 6.19278 1.91483 6.74495 1.87673 7.45098L1.05811 22.5973C1.03899 22.9623 1.16993 23.3193 1.42144 23.5842C1.67217 23.8493 2.02115 24 2.38691 24H14.9161C15.2818 24 15.6308 23.8493 15.8824 23.5842C16.1329 23.3193 16.2647 22.9623 16.2449 22.5973ZM6.90498 4.18642C6.90498 3.22169 7.68876 2.43708 8.6535 2.43708C9.6181 2.43708 10.4036 3.22256 10.4036 4.18711V6.19273H6.90498V4.18642Z" fill="#006595"/>
<path d="M22.1822 8.62197C21.4221 8.146 20.4193 8.3745 19.9418 9.13439L15.5324 16.1634L12.9874 13.907C12.3163 13.3121 11.2896 13.374 10.6939 14.0452C10.098 14.7164 10.1599 15.743 10.8319 16.3387L14.8113 19.8666C15.1103 20.1316 15.4942 20.2761 15.8894 20.2761C15.9655 20.2761 16.0433 20.2705 16.1194 20.2593C16.5923 20.192 17.0112 19.9191 17.265 19.5144L22.6945 10.8615C23.1723 10.1015 22.9423 9.09877 22.1822 8.62197Z" fill="#006595"/>
</svg>
