<svg width="24" height="24" viewBox="0 0 24 24" fill="none" xmlns="http://www.w3.org/2000/svg">
<g clip-path="url(#clip0)">
<path d="M21.8931 17.5345H7.59777C6.52234 17.5345 4.92149 15.9175 4.92149 14.8307V4.09558C4.92149 2.95192 4.74354 1.65514 3.48201 0.761713L2.86632 0.266964C2.34382 -0.152098 1.58217 -0.06851 1.16198 0.452428C0.74258 0.974975 0.825778 1.73814 1.34793 2.1572L2.02034 2.69472C2.35655 2.93383 2.49705 3.18157 2.49705 4.09563V14.8306C2.49705 17.0728 4.74281 19.51 6.99051 19.8992C6.67674 20.3269 6.48572 20.8493 6.48572 21.4192C6.48572 22.8446 7.64122 24 9.06651 24C10.4928 24 11.6473 22.8447 11.6473 21.4192C11.6473 20.877 11.4785 20.3743 11.1924 19.9591H15.7482C15.5169 20.346 15.3755 20.7927 15.3755 21.2756C15.3755 22.701 16.531 23.8564 17.9563 23.8564C19.3826 23.8564 20.5371 22.7011 20.5371 21.2756C20.5371 20.7927 20.3959 20.346 20.1651 19.9591H21.8931C22.5626 19.9591 23.1052 19.4161 23.1052 18.7469C23.1052 18.0777 22.5627 17.5345 21.8931 17.5345Z" fill="#54C5D0"/>
<path d="M8.45082 15.6145H20.1055C20.9402 15.6145 21.6169 14.938 21.6169 14.1031V10.3629C21.6169 9.5288 20.9402 8.85152 20.1055 8.85152H8.45082C7.61631 8.85152 6.93961 9.5288 6.93961 10.3629V14.1031C6.93961 14.938 7.61631 15.6145 8.45082 15.6145Z" fill="#54C5D0"/>
<path d="M9.57361 7.68973H18.9825C19.6565 7.68973 20.2027 7.14363 20.2027 6.4697V3.45C20.2027 2.77608 19.6566 2.22978 18.9825 2.22978H9.57361C8.89969 2.22978 8.35339 2.77608 8.35339 3.45V6.4697C8.35339 7.14353 8.89969 7.68973 9.57361 7.68973Z" fill="#54C5D0"/>
</g>
<defs>
<clipPath id="clip0">
<rect width="24" height="24" fill="white"/>
</clipPath>
</defs>
</svg>
