<svg width="24" height="24" viewBox="0 0 24 24" fill="none" xmlns="http://www.w3.org/2000/svg">
<path d="M11.9998 6.29949C12.733 6.29949 13.3313 5.70208 13.3313 4.96818C13.3313 4.23429 12.733 3.63702 11.9998 3.63702C11.2652 3.63702 10.6686 4.23429 10.6686 4.96818C10.6686 5.70208 11.2652 6.29949 11.9998 6.29949Z" fill="#006595"/>
<path d="M19.7457 7.31283L13.4537 0.627851C13.0769 0.227192 12.5502 0 11.9998 0C11.4488 0 10.923 0.227143 10.5454 0.627851L4.25334 7.31283C3.90495 7.6829 3.71106 8.17266 3.71106 8.68125V22.0031C3.71106 23.1059 4.60419 24 5.70801 24H18.2919C19.394 24 20.2889 23.1059 20.2889 22.0031V8.6813C20.2889 8.17266 20.0941 7.6829 19.7457 7.31283ZM11.9998 2.43135C13.3985 2.43135 14.5369 3.56944 14.5369 4.96816C14.5369 6.36689 13.3985 7.50512 11.9998 7.50512C10.6011 7.50512 9.46302 6.36689 9.46302 4.96816C9.46302 3.56944 10.6011 2.43135 11.9998 2.43135ZM17.2056 15.0283L15.234 16.9501C15.099 17.0821 15.0378 17.2716 15.0689 17.4573L15.5345 20.1719C15.5714 20.3866 15.4835 20.6036 15.3068 20.732C15.1302 20.86 14.8965 20.8773 14.7033 20.7755L12.2661 19.4942C12.0989 19.4062 11.8995 19.4062 11.733 19.4942L9.29502 20.7755C9.10186 20.8773 8.86818 20.8602 8.69229 20.732C8.51563 20.604 8.42686 20.3865 8.46471 20.1719L8.9294 17.4573C8.96222 17.2716 8.90017 17.0821 8.76518 16.9501L6.79267 15.0283C6.6374 14.8759 6.58067 14.6483 6.64829 14.4412C6.71591 14.2339 6.89479 14.0828 7.11076 14.0515L9.83595 13.6553C10.0221 13.6283 10.1838 13.5113 10.2669 13.3422L11.486 10.8728C11.5825 10.6773 11.7817 10.5532 11.9999 10.5532C12.2175 10.5532 12.4167 10.6773 12.5133 10.8728L13.7315 13.3422C13.8147 13.5113 13.9766 13.6283 14.1633 13.6553L16.8885 14.0515C17.1036 14.0827 17.2825 14.2339 17.3501 14.4412C17.4176 14.6484 17.3612 14.8759 17.2056 15.0283Z" fill="#006595"/>
</svg>
